<svg width="16" height="15" viewBox="0 0 16 15" fill="none" xmlns="http://www.w3.org/2000/svg">
<path d="M3.4644 11.9878C3.4644 11.6027 3.7204 11.5391 3.85543 11.166C3.89952 11.0441 3.83649 10.9096 3.71465 10.8655C3.59271 10.8214 3.45827 10.8844 3.41415 11.0063C3.32015 11.2661 2.99512 11.4269 2.99512 11.9878C2.99512 12.6588 3.44921 12.7237 3.44921 13.1924C3.44921 13.6714 2.99512 13.7155 2.99512 14.3972C2.99512 14.5268 3.10015 14.6318 3.22974 14.6318C3.35934 14.6318 3.46437 14.5268 3.46437 14.3972C3.46437 13.9182 3.91846 13.8741 3.91846 13.1924C3.91849 12.5213 3.4644 12.4568 3.4644 11.9878Z" fill="#BEAD8E"/>
<path d="M8.33549 11.9879C8.33549 11.6029 8.59124 11.5399 8.72652 11.1661C8.77065 11.0442 8.70762 10.9097 8.58577 10.8656C8.46412 10.8216 8.32943 10.8845 8.28531 11.0064C8.19115 11.2664 7.86621 11.4267 7.86621 11.9879C7.86621 12.6589 8.3203 12.7238 8.3203 13.1925C8.3203 13.6715 7.86621 13.7157 7.86621 14.3973C7.86621 14.5269 7.97124 14.6319 8.10084 14.6319C8.23043 14.6319 8.33546 14.5269 8.33546 14.3973C8.33546 13.9183 8.78955 13.8742 8.78955 13.1925C8.78962 12.5214 8.33549 12.4569 8.33549 11.9879Z" fill="#BEAD8E"/>
<path d="M5.89995 11.9879C5.89995 11.6028 6.15566 11.5399 6.29095 11.1661C6.33507 11.0442 6.27204 10.9097 6.1502 10.8656C6.02854 10.8216 5.89385 10.8845 5.84973 11.0064C5.75551 11.2665 5.43066 11.4267 5.43066 11.9879C5.43066 12.6589 5.88476 12.7238 5.88476 13.1925C5.88476 13.6715 5.43066 13.7157 5.43066 14.3973C5.43066 14.5269 5.5357 14.6319 5.66529 14.6319C5.79488 14.6319 5.89991 14.5269 5.89991 14.3973C5.89991 13.9183 6.35401 13.8742 6.35401 13.1925C6.35404 12.5214 5.89995 12.4569 5.89995 11.9879Z" fill="#BEAD8E"/>
<path d="M10.771 11.9879C10.771 11.6028 11.0268 11.5399 11.162 11.1661C11.2062 11.0442 11.1431 10.9097 11.0213 10.8656C10.8997 10.8216 10.7649 10.8845 10.7208 11.0064C10.6266 11.2665 10.3018 11.4267 10.3018 11.9879C10.3018 12.6589 10.7559 12.7238 10.7559 13.1925C10.7559 13.6715 10.3018 13.7157 10.3018 14.3973C10.3018 14.5269 10.4068 14.6319 10.5364 14.6319C10.666 14.6319 10.771 14.5269 10.771 14.3973C10.771 13.9183 11.2251 13.8742 11.2251 13.1925C11.2251 12.5214 10.771 12.4569 10.771 11.9879Z" fill="#BEAD8E"/>
<path d="M13.2066 11.9879C13.2066 11.6028 13.4623 11.5399 13.5976 11.1661C13.6417 11.0442 13.5787 10.9097 13.4568 10.8656C13.3352 10.8216 13.2005 10.8845 13.1564 11.0064C13.0621 11.2665 12.7373 11.4267 12.7373 11.9879C12.7373 12.6589 13.1914 12.7238 13.1914 13.1925C13.1914 13.6715 12.7373 13.7157 12.7373 14.3973C12.7373 14.5269 12.8423 14.6319 12.9719 14.6319C13.1015 14.6319 13.2066 14.5269 13.2066 14.3973C13.2066 13.9183 13.6606 13.8742 13.6606 13.1925C13.6606 12.5214 13.2066 12.4569 13.2066 11.9879Z" fill="#BEAD8E"/>
<path d="M1.32849 3.15515L1.31018 3.23859C1.2824 3.36515 1.36252 3.49028 1.48909 3.51803C1.61587 3.54578 1.74081 3.46553 1.76856 3.33912L1.80893 3.15515H2.22393V3.57015L2.03993 3.61053C1.91337 3.63831 1.83324 3.76343 1.86106 3.89C1.88884 4.01656 2.01399 4.09662 2.14049 4.06887L2.22393 4.05056V4.18056C2.22393 4.31015 2.32896 4.41518 2.45856 4.41518C2.58815 4.41518 2.69318 4.31012 2.69318 4.18056V4.05059L2.77659 4.0689C2.90284 4.09659 3.02821 4.0169 3.05602 3.89003C3.08384 3.76347 3.00371 3.63834 2.87715 3.61056L2.69318 3.57018V3.15518H3.10818L3.14856 3.33918C3.17634 3.46587 3.30156 3.54578 3.42799 3.51806C3.55456 3.49028 3.63468 3.36515 3.60687 3.23859L3.58856 3.15518H3.71856C3.84815 3.15518 3.95318 3.05012 3.95318 2.92056C3.95318 2.79097 3.84815 2.68593 3.71856 2.68593H3.58856L3.60687 2.60253C3.63468 2.47597 3.55456 2.35084 3.42799 2.32306C3.30152 2.29537 3.17631 2.3754 3.14856 2.50193L3.10818 2.68593H2.69318V2.27093L2.87715 2.23056C3.00371 2.20278 3.08384 2.07768 3.05606 1.95109C3.02827 1.82453 2.90312 1.74453 2.77659 1.77222L2.69318 1.79053V1.66053C2.69318 1.53093 2.58815 1.4259 2.45856 1.4259C2.32896 1.4259 2.22393 1.53097 2.22393 1.66053V1.79053L2.14049 1.77222C2.01374 1.74456 1.88881 1.82456 1.86102 1.95109C1.83324 2.07765 1.91337 2.20278 2.03993 2.23056L2.22393 2.27093V2.68593H1.80893L1.76856 2.50197C1.74074 2.3754 1.6159 2.29537 1.48909 2.32306C1.36252 2.35084 1.2824 2.47593 1.31018 2.6025L1.32849 2.68593H1.19849C1.0689 2.68593 0.963867 2.791 0.963867 2.92056C0.963867 3.05015 1.0689 3.15518 1.19849 3.15518H1.32849V3.15515Z" fill="#BEAD8E"/>
<path d="M14.1832 4.75007C14.1832 4.25585 13.7812 3.85376 13.2869 3.85376C12.7927 3.85376 12.3906 4.25585 12.3906 4.75007C12.3906 5.24429 12.7927 5.64638 13.2869 5.64638C13.7812 5.64638 14.1832 5.24429 14.1832 4.75007ZM12.8599 4.75007C12.8599 4.5146 13.0515 4.32301 13.2869 4.32301C13.5224 4.32301 13.714 4.5146 13.714 4.75007C13.714 4.98554 13.5224 5.17713 13.2869 5.17713C13.0515 5.17713 12.8599 4.98554 12.8599 4.75007Z" fill="#BEAD8E"/>
<path d="M11.8727 4.75007C11.8727 4.25585 11.4706 3.85376 10.9764 3.85376C10.4821 3.85376 10.0801 4.25585 10.0801 4.75007C10.0801 5.24429 10.4821 5.64638 10.9764 5.64638C11.4706 5.64638 11.8727 5.24429 11.8727 4.75007ZM10.5493 4.75007C10.5493 4.5146 10.7409 4.32301 10.9764 4.32301C11.2119 4.32301 11.4035 4.5146 11.4035 4.75007C11.4035 4.98554 11.2119 5.17713 10.9764 5.17713C10.7409 5.17713 10.5493 4.98554 10.5493 4.75007Z" fill="#BEAD8E"/>
<path d="M2.45878 5.38582C3.81456 5.38582 4.91753 4.28282 4.91753 2.92704C4.91753 1.57126 3.81453 0.468262 2.45878 0.468262C1.10303 0.468262 0 1.57126 0 2.92704C0 4.28282 1.10303 5.38582 2.45878 5.38582ZM2.45878 0.937511C3.55578 0.937511 4.44828 1.83001 4.44828 2.92704C4.44828 4.02407 3.55578 4.91657 2.45878 4.91657C1.36175 4.91657 0.46925 4.02407 0.46925 2.92704C0.46925 1.83001 1.36175 0.937511 2.45878 0.937511Z" fill="#BEAD8E"/>
<path d="M14.9414 2.0929H5.70881C5.57922 2.0929 5.47418 2.19796 5.47418 2.32752C5.47418 2.45708 5.57922 2.56215 5.70881 2.56215H14.9414C15.2663 2.56215 15.5307 2.82649 15.5307 3.15143V8.85708C15.5307 9.18199 15.2663 9.44636 14.9414 9.44636H14.183V7.38752C14.183 6.94383 13.8221 6.58286 13.3784 6.58286H3.27681C2.83312 6.58286 2.47218 6.94383 2.47218 7.38752V9.44636H1.71381C1.38887 9.44636 1.12452 9.18202 1.12452 8.85708V5.79818C1.12452 5.66858 1.01949 5.56355 0.889899 5.56355C0.760305 5.56355 0.655273 5.66861 0.655273 5.79818V8.85708C0.655273 9.44074 1.13012 9.91561 1.71381 9.91561H14.9414C15.5251 9.91561 15.9999 9.44074 15.9999 8.85708V3.15143C15.9999 2.56774 15.5251 2.0929 14.9414 2.0929ZM2.94143 7.99749H13.7138V8.50099H2.94143V7.99749ZM3.27681 7.05211H13.3784C13.5633 7.05211 13.7138 7.20258 13.7138 7.38752V7.52824H2.94143V7.38752C2.94143 7.20258 3.09187 7.05211 3.27681 7.05211ZM2.94143 8.97024H13.7138V9.44636H2.94143V8.97024Z" fill="#BEAD8E"/>
</svg>
