<svg width="14" height="16" viewBox="0 0 14 16" fill="none" xmlns="http://www.w3.org/2000/svg">
<path d="M3.65462 3.42732C4.21796 3.67992 4.44459 4.2771 4.51587 4.52214C4.55046 4.64104 4.6569 4.72095 4.78068 4.72095C4.90446 4.72095 5.01087 4.64104 5.04549 4.5221C5.11677 4.27707 5.34337 3.67989 5.90677 3.42729C6.00602 3.38279 6.07018 3.28389 6.07018 3.17535C6.07018 3.06682 6.00605 2.96792 5.90677 2.92339C5.3434 2.67079 5.1168 2.0736 5.04549 1.82857C5.0109 1.70967 4.90446 1.62976 4.78068 1.62976C4.6569 1.62976 4.55046 1.70967 4.51587 1.82857C4.44459 2.0736 4.21799 2.67079 3.65465 2.92339C3.55537 2.96789 3.49121 3.06679 3.49121 3.17535C3.49121 3.28392 3.55537 3.38282 3.65462 3.42732ZM4.78068 2.42135C4.91071 2.67429 5.11084 2.95976 5.41118 3.17535C5.11084 3.39095 4.91074 3.67642 4.78068 3.92935C4.65065 3.67642 4.45055 3.39095 4.15018 3.17535C4.45052 2.95976 4.65065 2.67429 4.78068 2.42135Z" fill="#BEAD8E"/>
<path d="M3.22756 4.75357C3.33268 4.70644 3.40059 4.60179 3.40059 4.48694C3.40059 4.3721 3.33265 4.26741 3.22756 4.22032C2.41478 3.85591 2.08978 3.001 1.98778 2.65032C1.95118 2.52447 1.83859 2.43994 1.70762 2.43994C1.57665 2.43994 1.46406 2.5245 1.42746 2.65032C1.32546 3.00097 1.00046 3.85588 0.18768 4.22032C0.0825547 4.26744 0.0146484 4.3721 0.0146484 4.48694C0.0146484 4.60179 0.082586 4.70647 0.18768 4.75357C1.00046 5.118 1.32546 5.97291 1.42749 6.32357C1.46409 6.44938 1.57668 6.53391 1.70765 6.53391C1.83859 6.53391 1.95118 6.44938 1.98781 6.32353C2.08978 5.97291 2.41481 5.118 3.22756 4.75357ZM1.70762 5.73519C1.52653 5.33247 1.20912 4.82635 0.676587 4.48691C1.20912 4.1475 1.52656 3.64138 1.70765 3.23866C1.88874 3.64138 2.20618 4.1475 2.73868 4.48691C2.20615 4.82635 1.88871 5.33247 1.70762 5.73519Z" fill="#BEAD8E"/>
<path d="M13.983 15.4566L13.9341 14.7707C13.9339 14.7685 13.9337 14.7663 13.9335 14.7641C13.824 13.6689 13.6191 12.5615 13.6097 12.5108C13.4622 11.4763 12.82 11.0019 12.3063 10.7861C12.1927 10.7383 12.0806 10.7011 11.9743 10.6721V4.39122C11.9743 4.262 11.8695 4.15722 11.7403 4.15722C11.6111 4.15722 11.5063 4.26197 11.5063 4.39122V10.5844C11.3653 10.5696 11.2679 10.5699 11.2409 10.5703C11.2138 10.5699 11.1164 10.5697 10.9754 10.5845V2.60206H11.5063V3.28575C11.5063 3.41497 11.611 3.51975 11.7403 3.51975C11.8695 3.51975 11.9743 3.415 11.9743 3.28575V0.733469C11.9743 0.329031 11.6453 0 11.2408 0C10.8364 0 10.5074 0.329031 10.5074 0.733469V10.6721C10.401 10.7011 10.2889 10.7383 10.1753 10.7861C10.0543 10.8369 9.92616 10.9024 9.79904 10.986L9.8827 9.41859C10.0839 9.3645 10.2326 9.18103 10.2326 8.963V8.31763C10.2326 8.05722 10.0208 7.84538 9.76038 7.84538H9.67479C9.7132 7.74447 9.73373 7.63613 9.73373 7.52481C9.73373 7.02806 9.3296 6.62397 8.83288 6.62397C8.72254 6.62397 8.61551 6.6435 8.51513 6.68141C8.31013 6.38597 7.96795 6.20003 7.59935 6.20003C7.47823 6.20003 7.35829 6.22006 7.24457 6.25838C7.09273 5.62372 6.52066 5.15053 5.84013 5.15053C5.1596 5.15053 4.58751 5.62369 4.43566 6.25838C4.32195 6.22006 4.20201 6.20003 4.08088 6.20003C3.46729 6.20003 2.96807 6.69922 2.96807 7.31281C2.96807 7.50128 3.01507 7.68388 3.09948 7.84538H2.94141C2.68101 7.84538 2.46916 8.05722 2.46916 8.31759V8.963C2.46916 9.18103 2.61788 9.3645 2.81907 9.41859L2.92538 11.4106L2.23388 12.1021C2.10638 12.2296 2.03613 12.3991 2.03613 12.5795C2.03613 12.7598 2.10635 12.9293 2.23388 13.0568C2.36551 13.1884 2.53838 13.2542 2.71126 13.2542C2.81732 13.2542 2.92329 13.2292 3.01982 13.1797L3.11035 14.8761C3.14401 15.5063 3.66473 16 4.29582 16H8.40604C8.53335 16 8.65604 15.9796 8.77129 15.9423C8.84285 15.9794 8.92273 16 9.0046 16H13.4771C13.6174 16 13.7527 15.9411 13.8484 15.8384C13.9439 15.7357 13.993 15.5966 13.983 15.4566ZM10.9754 0.733469C10.9754 0.587094 11.0944 0.468 11.2408 0.468C11.3872 0.468 11.5063 0.587094 11.5063 0.733469V2.13409H10.9754V0.733469ZM11.2343 11.0383C11.2384 11.0384 11.2431 11.0384 11.2472 11.0383C11.3116 11.0368 12.74 11.0174 13.0934 12.3174H9.72801L9.76507 11.6228C10.3178 11.0262 11.1831 11.037 11.2343 11.0383ZM4.08091 6.66803C4.22929 6.66803 4.36882 6.71716 4.48441 6.81009C4.55554 6.86728 4.65335 6.87788 4.73504 6.83738C4.81676 6.79684 4.86748 6.7125 4.86495 6.62131L4.8646 6.60988C4.86441 6.60475 4.8642 6.59966 4.8642 6.5945C4.8642 6.05638 5.30201 5.61856 5.84016 5.61856C6.37832 5.61856 6.8161 6.05638 6.8161 6.5945C6.8161 6.59966 6.81588 6.60478 6.8157 6.60988L6.81535 6.62131C6.81285 6.7125 6.86354 6.79681 6.94526 6.83738C7.02698 6.87791 7.12482 6.86728 7.19588 6.81009C7.31148 6.71716 7.45098 6.66803 7.59938 6.66803C7.86538 6.66803 8.10766 6.83512 8.2022 7.08384C8.22866 7.15344 8.28666 7.20628 8.35841 7.22619C8.43016 7.24609 8.50707 7.23063 8.56563 7.18456C8.64257 7.124 8.73501 7.092 8.83291 7.092C9.07157 7.092 9.26576 7.28619 9.26576 7.52488C9.26576 7.64806 9.21363 7.76391 9.12382 7.84544H3.69551C3.53629 7.724 3.4361 7.52134 3.4361 7.31287C3.43607 6.95728 3.72535 6.66803 4.08091 6.66803ZM2.9372 8.31759C2.9372 8.31525 2.9391 8.31334 2.94145 8.31334H9.76041C9.76276 8.31334 9.76466 8.31525 9.76466 8.31759V8.96297C9.76466 8.96531 9.76276 8.96722 9.76041 8.96722H7.81176C7.50116 8.96722 7.22616 9.15203 7.11116 9.43803C6.9857 9.75019 6.68729 9.95184 6.35091 9.95184C6.33238 9.95184 6.31407 9.95088 6.29582 9.94963L6.7342 9.51125C6.8617 9.38375 6.93194 9.21422 6.93194 9.03388C6.93194 8.85353 6.86173 8.684 6.7342 8.5565C6.47098 8.29328 6.0427 8.29328 5.77948 8.5565L5.26838 9.06759C5.1562 9.00319 5.0267 8.96719 4.8901 8.96719H2.94145C2.9391 8.96719 2.9372 8.96528 2.9372 8.96294V8.31759ZM4.90007 9.43594L3.37032 10.9657L3.28863 9.43522H4.89007C4.89351 9.43522 4.89673 9.43584 4.90007 9.43594ZM8.40604 15.532H4.29582C3.91351 15.532 3.59807 15.2329 3.5777 14.8512L3.46707 12.7784L4.47426 11.7712C4.56563 11.6799 4.56563 11.5317 4.47426 11.4403C4.38288 11.349 4.23473 11.349 4.14335 11.4403L2.85776 12.7259C2.77701 12.8067 2.6456 12.8067 2.56485 12.7259C2.4841 12.6452 2.4841 12.5138 2.56485 12.433L6.11038 8.8875C6.19113 8.80672 6.32251 8.80672 6.40329 8.8875C6.48404 8.96825 6.48404 9.09966 6.40329 9.18041L4.93388 10.6498C4.84251 10.7412 4.84251 10.8893 4.93388 10.9807C5.02526 11.0721 5.17341 11.0721 5.26479 10.9807L5.90482 10.3407C6.04476 10.3921 6.19516 10.4199 6.35091 10.4199C6.87938 10.4199 7.34826 10.103 7.54538 9.61263C7.5887 9.50488 7.69326 9.43525 7.81173 9.43525H9.41316L9.12416 14.8512C9.10379 15.233 8.78835 15.532 8.40604 15.532ZM13.5058 15.5195C13.5005 15.5252 13.4912 15.532 13.4771 15.532H12.746C12.674 14.519 12.4801 13.7664 12.4713 13.7327C12.4387 13.6077 12.3109 13.5328 12.1858 13.5654C12.0608 13.598 11.9858 13.7258 12.0184 13.8508C12.0205 13.8586 12.2054 14.5764 12.2767 15.532H11.4748V13.7918C11.4748 13.6626 11.3701 13.5578 11.2408 13.5578C11.1116 13.5578 11.0068 13.6625 11.0068 13.7918V15.532H10.2049C10.276 14.5813 10.4602 13.8626 10.4632 13.8509C10.4958 13.7258 10.4209 13.598 10.2959 13.5654C10.1709 13.5327 10.043 13.6077 10.0104 13.7327C10.0016 13.7665 9.80766 14.5191 9.7356 15.532H9.35026C9.4902 15.3486 9.57829 15.1229 9.59145 14.8762L9.70301 12.7855H13.1834C13.2471 13.1499 13.3849 13.9822 13.4675 14.8074L13.5163 15.4899C13.5173 15.504 13.5111 15.5138 13.5058 15.5195Z" fill="#BEAD8E"/>
</svg>
