<svg width="57" height="64" viewBox="0 0 57 64" fill="none" xmlns="http://www.w3.org/2000/svg">
<path d="M51.9965 16.5818C51.4409 16.5817 50.8979 16.7463 50.4359 17.0549C49.9739 17.3635 49.6139 17.8021 49.4012 18.3153C49.1885 18.8285 49.1328 19.3933 49.2412 19.9381C49.3495 20.483 49.6169 20.9835 50.0097 21.3764C50.4025 21.7692 50.903 22.0368 51.4478 22.1452C51.9927 22.2536 52.5574 22.198 53.0707 21.9855C53.584 21.7729 54.0226 21.4129 54.3313 20.951C54.6399 20.4891 54.8047 19.946 54.8047 19.3905C54.8039 18.6459 54.5078 17.932 53.9814 17.4055C53.4549 16.8789 52.7411 16.5827 51.9965 16.5818ZM51.9965 20.6758C51.7423 20.6759 51.4937 20.6006 51.2823 20.4594C51.0709 20.3182 50.906 20.1175 50.8087 19.8827C50.7113 19.6479 50.6858 19.3894 50.7353 19.1401C50.7849 18.8907 50.9072 18.6617 51.087 18.4819C51.2667 18.3021 51.4957 18.1796 51.745 18.13C51.9944 18.0803 52.2528 18.1057 52.4877 18.203C52.7226 18.3003 52.9234 18.465 53.0646 18.6764C53.2059 18.8878 53.2812 19.1363 53.2812 19.3905C53.281 19.7312 53.1456 20.0579 52.9047 20.2989C52.6638 20.5399 52.3372 20.6755 51.9965 20.6759V20.6758Z" fill="#BEAD8E"/>
<path d="M19.3568 9.70227C20.0113 9.70255 20.6511 9.50873 21.1954 9.14534C21.7397 8.78195 22.164 8.2653 22.4146 7.66075C22.6652 7.0562 22.731 6.39089 22.6035 5.74899C22.4759 5.10708 22.1609 4.5174 21.6983 4.05454C21.2356 3.59168 20.6461 3.27642 20.0042 3.14864C19.3624 3.02086 18.697 3.0863 18.0924 3.33668C17.4877 3.58707 16.9709 4.01115 16.6073 4.55528C16.2436 5.09942 16.0496 5.73917 16.0496 6.39362C16.0503 7.27065 16.399 8.11156 17.019 8.73184C17.639 9.35213 18.4798 9.70113 19.3568 9.70227ZM19.3568 4.6084C19.71 4.60812 20.0552 4.71259 20.349 4.90858C20.6428 5.10458 20.8718 5.38329 21.0071 5.70948C21.1425 6.03566 21.178 6.39465 21.1093 6.74104C21.0406 7.08743 20.8707 7.40565 20.621 7.65546C20.3714 7.90527 20.0533 8.07543 19.707 8.14443C19.3607 8.21342 19.0016 8.17815 18.6754 8.04307C18.3491 7.908 18.0702 7.67918 17.874 7.38557C17.6777 7.09197 17.573 6.74676 17.573 6.39362C17.5733 5.92049 17.7613 5.46682 18.0958 5.13214C18.4302 4.79746 18.8837 4.60911 19.3568 4.6084Z" fill="#BEAD8E"/>
<path d="M32.1436 28.9294C32.1433 28.2753 31.9491 27.6361 31.5855 27.0924C31.2219 26.5487 30.7053 26.125 30.101 25.8749C29.4966 25.6248 28.8317 25.5595 28.1902 25.6873C27.5488 25.815 26.9596 26.1301 26.4972 26.5927C26.0348 27.0553 25.72 27.6446 25.5925 28.2861C25.465 28.9276 25.5306 29.5925 25.7809 30.1967C26.0313 30.801 26.4552 31.3174 26.999 31.6808C27.5429 32.0441 28.1823 32.238 28.8363 32.238C29.7133 32.2369 30.5541 31.8879 31.1741 31.2676C31.7941 30.6473 32.1428 29.8064 32.1436 28.9294ZM28.8363 30.7146C28.4832 30.7149 28.1379 30.6104 27.8441 30.4144C27.5504 30.2184 27.3213 29.9397 27.186 29.6135C27.0507 29.2874 27.0151 28.9284 27.0838 28.582C27.1526 28.2356 27.3225 27.9174 27.5721 27.6676C27.8217 27.4177 28.1398 27.2476 28.4861 27.1786C28.8325 27.1096 29.1915 27.1449 29.5178 27.2799C29.844 27.415 30.1229 27.6438 30.3192 27.9374C30.5154 28.231 30.6201 28.5763 30.6201 28.9294C30.6198 29.4026 30.4318 29.8563 30.0973 30.191C29.7628 30.5256 29.3092 30.714 28.8361 30.7146H28.8363Z" fill="#BEAD8E"/>
<path d="M6.99964 20.0382C7.65409 20.0385 8.29392 19.8447 8.83821 19.4813C9.3825 19.1179 9.80679 18.6012 10.0574 17.9967C10.3081 17.3921 10.3738 16.7268 10.2463 16.0849C10.1188 15.443 9.80377 14.8533 9.3411 14.3905C8.87843 13.9276 8.28889 13.6124 7.64703 13.4846C7.00518 13.3568 6.33985 13.4222 5.73519 13.6726C5.13053 13.923 4.61371 14.3471 4.25009 14.8912C3.88647 15.4354 3.69238 16.0751 3.69238 16.7296C3.69319 17.6066 4.04185 18.4475 4.66186 19.0677C5.28188 19.688 6.12262 20.037 6.99964 20.0382ZM6.99964 14.9443C7.35278 14.9441 7.69807 15.0485 7.99183 15.2445C8.28559 15.4405 8.51462 15.7192 8.64996 16.0454C8.78529 16.3716 8.82084 16.7306 8.75212 17.077C8.68339 17.4234 8.51348 17.7416 8.26387 17.9914C8.01426 18.2412 7.69616 18.4114 7.34983 18.4804C7.00349 18.5494 6.64447 18.5141 6.31819 18.379C5.9919 18.2439 5.713 18.0151 5.51678 17.7215C5.32056 17.4279 5.21582 17.0827 5.21582 16.7296C5.21616 16.2564 5.40416 15.8028 5.73857 15.4681C6.07299 15.1334 6.52652 14.945 6.99964 14.9443Z" fill="#BEAD8E"/>
<path d="M56.8004 19.2031C56.6371 16.6895 54.5833 14.7208 52.125 14.7208C50.9889 14.7232 49.8938 15.1454 49.0502 15.9063C46.5541 13.4679 43.4377 11.3676 39.988 9.80631C36.0764 8.03595 32.0096 7.10018 28.2275 7.10018C27.1842 7.10968 26.1422 7.17435 25.1057 7.29391C25.1577 6.92254 25.1714 6.54683 25.1468 6.17266C24.9498 3.14279 22.4768 0.769531 19.5167 0.769531C16.5567 0.769531 14.0831 3.14279 13.8866 6.17139C13.816 7.55755 14.2338 8.92458 15.0673 10.0344L15.2246 10.2448C13.8308 11.0334 12.488 11.9087 11.204 12.8656C10.6853 12.3121 10.059 11.8705 9.36341 11.5678C8.66786 11.2651 7.91779 11.1078 7.15924 11.1055C4.19908 11.1055 1.72565 13.4796 1.52925 16.5074C1.45873 17.8936 1.87652 19.2606 2.70992 20.3706L3.61801 21.585C1.46616 25.7234 0.189517 30.7627 0.189517 35.1653C0.181671 38.8524 0.901106 42.5047 2.30664 45.9133C3.71217 49.322 5.77619 52.4199 8.38054 55.0298C10.9849 57.6397 14.0784 59.7103 17.4841 61.1231C20.8897 62.5359 24.5405 63.2631 28.2276 63.2631C31.9146 63.2631 35.5654 62.5359 38.971 61.1231C42.3767 59.7103 45.4702 57.6397 48.0746 55.0298C50.6789 52.4199 52.7429 49.322 54.1485 45.9133C55.554 42.5047 56.2734 38.8524 56.2656 35.1653C56.2656 32.0405 55.4697 27.3543 54.4302 24.2669L55.8213 22.407C56.5204 21.4906 56.8678 20.3538 56.8004 19.2031ZM15.4068 6.27143C15.5337 4.31635 17.106 2.29297 19.5167 2.29297C21.9274 2.29297 23.4994 4.31584 23.6267 6.27346C23.6833 7.29783 23.3708 8.30855 22.746 9.12228L19.5167 13.4419L16.2929 9.12978C15.6728 8.30972 15.3593 7.29846 15.4068 6.27143ZM3.04977 16.6074C3.17672 14.6524 4.74891 12.629 7.15962 12.629C9.57034 12.629 11.1424 14.6519 11.2696 16.6096C11.3263 17.6339 11.0138 18.6447 10.3889 19.4583L7.15924 23.7779L3.93578 19.4658C3.31569 18.6457 3.00223 17.6345 3.04977 16.6074ZM4.63948 22.9513L6.54987 25.5061C6.62079 25.601 6.71286 25.678 6.81877 25.731C6.92467 25.7841 7.04149 25.8117 7.15994 25.8117C7.27839 25.8117 7.39521 25.7841 7.50111 25.731C7.60702 25.678 7.69909 25.601 7.77001 25.5061L11.6086 20.3711C12.2883 19.4852 12.6964 18.4211 12.7832 17.3079C12.8701 16.1947 12.6319 15.0801 12.0977 14.0996C13.388 13.1372 14.7404 12.261 16.146 11.4768L18.9068 15.1696C18.9778 15.2644 19.0698 15.3415 19.1758 15.3945C19.2817 15.4476 19.3985 15.4752 19.5169 15.4752C19.6354 15.4752 19.7522 15.4476 19.8581 15.3945C19.964 15.3415 20.0561 15.2644 20.127 15.1696L23.9658 10.0347C24.2341 9.67717 24.4622 9.29124 24.6461 8.88387C24.9626 8.84337 25.2789 8.80554 25.5907 8.77393L28.7899 13.3894C29.1605 13.9218 29.3516 14.5586 29.3352 15.2071C29.3189 15.8555 29.096 16.4819 28.699 16.9949L27.7953 18.1683C27.5749 18.4535 27.2839 18.6763 26.951 18.8147C26.6181 18.9531 26.2549 19.0023 25.8973 18.9575L24.8722 18.8265C24.15 18.7338 23.4164 18.8555 22.7627 19.1764C22.1091 19.4973 21.5642 20.0033 21.1958 20.6315C20.9883 20.9853 20.6815 21.2704 20.3134 21.4513C19.9452 21.6323 19.5321 21.7011 19.1252 21.6493L16.7585 21.3484C16.0507 21.2563 15.3312 21.3634 14.6808 21.6577C14.0305 21.9519 13.4751 22.4217 13.0769 23.0141C12.7043 23.5645 12.5005 24.2116 12.4902 24.8762C12.48 25.5407 12.6638 26.1938 13.0193 26.7554L14.5827 29.2266C14.8708 29.6793 15.2687 30.0519 15.7394 30.3097C16.21 30.5675 16.7382 30.7022 17.2749 30.7013C17.7948 30.7017 18.3067 30.5732 18.7648 30.3274L20.3746 29.4641C21.1632 29.0412 22.4439 29.037 23.367 29.4174C23.4551 30.5582 23.8639 31.651 24.5462 32.5695L28.3858 37.706C28.4567 37.8009 28.5488 37.8779 28.6547 37.931C28.7606 37.984 28.8774 38.0117 28.9959 38.0117C29.1143 38.0117 29.2311 37.984 29.337 37.931C29.443 37.8779 29.535 37.8009 29.6059 37.706L31.5533 35.1012L31.8008 35.4404C31.9057 35.5867 32.0181 35.7306 32.135 35.8683L34.0901 38.1709C34.1772 38.2736 34.2426 38.3928 34.2822 38.5215C34.3219 38.6501 34.3351 38.7854 34.3209 38.9193C34.3067 39.0532 34.2655 39.1828 34.1997 39.3003C34.134 39.4177 34.0451 39.5206 33.9384 39.6027L30.9756 41.8809C30.1871 42.4848 29.6071 43.32 29.3165 44.2698L28.3289 47.4756C28.2513 47.7284 28.1243 47.9634 27.9552 48.1667L26.9943 49.3235C26.2785 50.1835 25.8353 51.2375 25.7214 52.3506C25.6936 52.6213 25.5934 52.8795 25.4314 53.0981C25.2694 53.3167 25.0515 53.4877 24.8006 53.5931C24.6955 53.6371 24.5817 53.6567 24.4679 53.6506C24.3541 53.6444 24.2431 53.6125 24.1433 53.5573C24.0436 53.5021 23.9576 53.4251 23.8918 53.3319C23.8261 53.2388 23.7823 53.132 23.7637 53.0195L22.8585 47.5835C22.7455 46.908 22.4698 46.2701 22.0552 45.7249L18.739 41.3728C18.4411 40.9825 18.2208 40.5386 18.09 40.0652L16.9956 36.1133C16.8021 35.4209 16.4328 34.7903 15.9236 34.2827C15.4144 33.7752 14.7825 33.408 14.0895 33.2168L13.8516 33.152C13.3701 33.0201 12.9283 32.7723 12.5648 32.4302L10.5235 30.5064C10.1983 30.2002 9.9194 29.8484 9.69538 29.462C9.22035 28.6429 8.5014 27.9927 7.63893 27.6021C6.77646 27.2115 5.81354 27.1 4.88462 27.2832C4.85486 27.289 4.82548 27.2967 4.79665 27.306L2.7513 27.9714C3.22848 26.2447 3.86044 24.5645 4.63948 22.9513ZM24.8862 28.8074C25.0132 26.8523 26.5854 24.8289 28.9961 24.8289C31.4068 24.8289 32.9788 26.8518 33.106 28.8095C33.1627 29.8339 32.8503 30.8446 32.2254 31.6582L28.9961 35.9778L25.7722 31.6657C25.1521 30.8457 24.8387 29.8344 24.8862 28.8074ZM54.7422 35.1653C54.7422 49.8005 42.8477 61.707 28.2275 61.707C13.6073 61.707 1.71295 49.8005 1.71295 35.1653C1.72539 33.3314 1.92997 31.5038 2.32334 29.7126L5.22206 28.7697C5.83409 28.6581 6.46564 28.7381 7.03049 28.9988C7.59533 29.2596 8.06592 29.6883 8.37799 30.2265C8.67595 30.7402 9.04688 31.2081 9.47918 31.6153L11.5206 33.5385C12.0661 34.0515 12.7289 34.4231 13.451 34.6211L13.6889 34.6858C14.1275 34.807 14.5272 35.0395 14.8494 35.3608C15.1715 35.6822 15.4051 36.0813 15.5274 36.5195L16.6218 40.4721C16.8041 41.1326 17.1115 41.7521 17.5272 42.2968L20.8434 46.649C21.1079 46.9967 21.2837 47.4036 21.3558 47.8345L22.261 53.2705C22.3167 53.61 22.4487 53.9324 22.6471 54.2135C22.8455 54.4946 23.105 54.727 23.4062 54.8933C23.7074 55.0596 24.0424 55.1555 24.3859 55.1736C24.7295 55.1917 25.0727 55.1317 25.3897 54.9981C25.8928 54.787 26.3297 54.4443 26.6546 54.0061C26.9795 53.5678 27.1804 53.0502 27.2362 52.5075C27.3194 51.6946 27.643 50.925 28.1657 50.2969L29.1266 49.1401C29.4243 48.7823 29.6479 48.3689 29.7844 47.9239L30.7716 44.718C30.9698 44.0703 31.3653 43.5007 31.903 43.0888L34.867 40.8105C35.1373 40.6027 35.3625 40.3422 35.5291 40.0447C35.6957 39.7473 35.8001 39.4191 35.8361 39.08C35.8721 38.741 35.8388 38.3982 35.7383 38.0724C35.6378 37.7466 35.4722 37.4446 35.2516 37.1848L33.2965 34.8821C33.2066 34.7762 33.1201 34.6655 33.036 34.5481L32.5082 33.8244L33.4453 32.5712C34.2881 31.4663 34.707 30.0959 34.6259 28.7086C34.429 25.6788 31.956 23.3055 28.9958 23.3055C26.3209 23.3055 24.0446 25.2437 23.4849 27.8518C22.2196 27.4788 20.7046 27.5598 19.6547 28.1225L18.045 28.9858C17.6769 29.1814 17.2486 29.2311 16.8455 29.1249C16.4424 29.0187 16.0942 28.7645 15.8703 28.4129L14.3067 25.9417C14.1098 25.6305 14.0079 25.2686 14.0135 24.9004C14.0192 24.5322 14.1322 24.1736 14.3386 23.8687C14.5795 23.5101 14.9156 23.2258 15.3091 23.0477C15.7027 22.8697 16.1381 22.8048 16.5665 22.8605L18.9331 23.1613C19.6358 23.2511 20.3494 23.1325 20.9852 22.8201C21.621 22.5076 22.151 22.0153 22.5093 21.4041C22.7264 21.0331 23.048 20.7341 23.4338 20.5445C23.8196 20.3549 24.2527 20.283 24.6792 20.3377L25.704 20.4687C26.3256 20.5467 26.9567 20.4612 27.5351 20.2208C28.1136 19.9803 28.6193 19.5932 29.0024 19.0976L29.9061 17.9242C30.5011 17.1555 30.8351 16.2168 30.8596 15.245C30.884 14.2733 30.5976 13.319 30.042 12.5213L27.3537 8.64393C27.6618 8.63123 27.9551 8.62361 28.2275 8.62361C31.7949 8.62361 35.6441 9.51229 39.3599 11.1943C40.524 11.7226 41.6554 12.3203 42.7479 12.9843L40.7016 16.4917C40.4083 17.0064 40.2825 17.5996 40.3417 18.1891C40.4008 18.7785 40.642 19.335 41.0317 19.7811C41.6197 20.4546 42.4356 20.8874 43.323 20.9963L43.6941 21.042C44.0532 21.0866 44.3917 21.2344 44.6685 21.4676C44.9453 21.7007 45.1484 22.0092 45.2533 22.3556C45.3525 22.6847 45.3554 23.0353 45.2617 23.366C45.168 23.6967 44.9816 23.9937 44.7245 24.2218L41.05 27.4708C40.6776 27.8004 40.3793 28.2053 40.175 28.6587C39.9708 29.1122 39.8651 29.6038 39.865 30.1012V30.9633C39.8639 31.4742 39.9913 31.9772 40.2356 32.4259C40.4799 32.8746 40.8332 33.2546 41.2629 33.5309C41.4766 33.6683 41.6563 33.8522 41.7887 34.069C41.921 34.2857 42.0026 34.5296 42.0272 34.7824L42.1131 35.6432C42.1804 36.34 42.5053 36.9867 43.0242 37.4567C43.5431 37.9267 44.2187 38.1862 44.9188 38.1844H47.0695C47.9605 38.1841 48.8321 37.9244 49.5779 37.4369C50.3237 36.9494 50.9113 36.2553 51.2691 35.4393L51.3983 35.1446C51.525 34.8525 51.7313 34.602 51.9937 34.4217C52.2562 34.2414 52.5641 34.1387 52.8822 34.1253L53.3868 34.1025C53.4689 34.0988 53.5508 34.0929 53.6326 34.0846L54.7055 33.9765C54.7293 34.3938 54.7422 34.793 54.7422 35.1653ZM54.579 32.457L53.48 32.5676C53.4264 32.5731 53.3726 32.5769 53.3182 32.5794L52.8129 32.6024C52.2105 32.6277 51.6275 32.8221 51.1306 33.1634C50.6337 33.5046 50.2429 33.979 50.0031 34.5321L49.8739 34.8267C49.635 35.3717 49.2426 35.8353 48.7446 36.1609C48.2466 36.4866 47.6645 36.6601 47.0695 36.6603H44.9185C44.5966 36.661 44.2859 36.5416 44.0474 36.3253C43.8088 36.1091 43.6595 35.8117 43.6287 35.4912L43.5426 34.6303C43.4959 34.1496 43.3408 33.6858 43.089 33.2736C42.8373 32.8614 42.4953 32.5117 42.089 32.2506C41.8735 32.112 41.6963 31.9213 41.5738 31.6963C41.4514 31.4712 41.3875 31.2189 41.3881 30.9627V30.1005C41.3881 29.819 41.4479 29.5407 41.5635 29.284C41.6791 29.0273 41.8479 28.7981 42.0588 28.6115L45.7333 25.3625C46.2083 24.9409 46.5527 24.3922 46.7259 23.7811C46.8992 23.1701 46.8939 22.5222 46.7108 21.9141C46.5204 21.2853 46.1515 20.7253 45.6489 20.3021C45.1464 19.8788 44.5318 19.6105 43.8798 19.5298L43.5087 19.4841C42.9933 19.4208 42.5195 19.1695 42.178 18.7783C41.9971 18.5716 41.8848 18.3138 41.8567 18.0405C41.8285 17.7672 41.8859 17.4919 42.0209 17.2526L44.0318 13.806C45.4809 14.7761 46.838 15.8773 48.0858 17.0957C47.7149 17.7401 47.4973 18.4612 47.4497 19.2031C47.3908 20.3529 47.7371 21.4868 48.4283 22.4075L51.515 26.535C51.5859 26.6299 51.678 26.7069 51.7839 26.7599C51.8898 26.813 52.0066 26.8406 52.125 26.8406C52.2435 26.8406 52.3603 26.813 52.4661 26.7599C52.572 26.7069 52.6641 26.6299 52.735 26.535L53.3026 25.776C53.9089 27.9646 54.3358 30.199 54.579 32.457ZM54.6017 21.4937L52.125 24.8056L49.6539 21.501C49.176 20.8703 48.934 20.0921 48.9699 19.3016C49.0676 17.7985 50.2746 16.2438 52.125 16.2438C53.9755 16.2438 55.1826 17.7985 55.2803 19.3034C55.3236 20.0913 55.0827 20.8685 54.6016 21.4939L54.6017 21.4937Z" fill="#BEAD8E"/>
</svg>
