<svg width="14" height="17" viewBox="0 0 14 17" fill="none" xmlns="http://www.w3.org/2000/svg">
<path d="M7.20732 5.25841L9.08326 5.79955H9.08329C9.14442 5.81718 9.20665 5.82593 9.26856 5.82593C9.37951 5.82593 9.4893 5.79786 9.58912 5.74273C9.74463 5.65685 9.85739 5.51556 9.90661 5.34489C10.0082 4.99255 9.80429 4.62323 9.45198 4.5216L7.57601 3.98046C7.40546 3.93124 7.22573 3.95139 7.07018 4.03728C6.91467 4.12316 6.80191 4.26445 6.75269 4.43512C6.65105 4.7874 6.85501 5.15675 7.20732 5.25841ZM7.20307 4.56498C7.2176 4.5146 7.25089 4.47291 7.2968 4.44756C7.34274 4.42218 7.39577 4.41628 7.44612 4.43078L9.32206 4.97192C9.42607 5.00192 9.48626 5.11096 9.45626 5.21497C9.44173 5.26535 9.40845 5.30704 9.36254 5.33239C9.31659 5.35776 9.26359 5.3637 9.21318 5.34917H9.21321L7.33727 4.80803C7.23326 4.77803 7.17307 4.66902 7.20307 4.56498Z" fill="#BEAD8E"/>
<path d="M13.8337 13.085C13.7135 12.7683 13.4536 12.3731 12.8922 12.1374C13.109 11.8666 13.3633 11.407 13.3633 10.7402C13.3633 10.6107 13.2584 10.5058 13.129 10.5058C12.9995 10.5058 12.8946 10.6107 12.8946 10.7402C12.8946 11.2432 12.717 11.5925 12.5593 11.8038C12.3556 11.3287 12.0045 10.9926 11.5427 10.8411C11.4972 10.8261 11.451 10.8131 11.404 10.8019V6.23421C11.404 6.15795 11.367 6.08651 11.3046 6.0426C11.2423 5.99869 11.1625 5.98784 11.0907 6.01353L10.8701 6.09248C11.008 5.1874 10.9555 4.30807 10.7157 3.58029C10.4258 2.70077 9.88409 2.10619 9.19037 1.90604C8.44228 1.69021 7.61408 1.95111 6.85833 2.64061C6.44807 3.01492 6.08479 3.49312 5.78767 4.04217L5.5074 3.59382C5.31072 3.27907 5.20678 2.91682 5.20678 2.54619V2.11003C5.45098 1.96296 5.61472 1.69528 5.61472 1.39C5.61466 0.926863 5.23784 0.550049 4.77471 0.550049H2.10832C1.64519 0.550049 1.26837 0.926863 1.26837 1.39C1.26837 1.69521 1.43204 1.96286 1.67622 2.10997V2.54623C1.67622 2.91685 1.57227 3.27913 1.37554 3.59394L1.20524 3.86675C1.1367 3.97654 1.17014 4.12112 1.27994 4.18968C1.38979 4.25822 1.5343 4.22478 1.60287 4.11499L1.7731 3.84228C2.01637 3.45299 2.14495 3.00483 2.14495 2.54626V2.22998H4.73799V2.54623C4.73799 3.0048 4.86656 3.45293 5.10986 3.84228L5.52874 4.51234C5.53446 4.52153 5.53971 4.53059 5.54524 4.53971C5.4232 4.81893 5.31722 5.11186 5.22968 5.41523C5.13708 5.73604 5.06773 6.06029 5.02226 6.38275L3.99076 6.0136C3.9397 5.99531 3.88388 5.99531 3.83281 6.0136L2.09747 6.63465L1.05376 6.26109V5.56018C1.05376 5.33038 1.09323 5.10476 1.17102 4.88959C1.21502 4.76786 1.15205 4.6335 1.03032 4.5895C0.908622 4.54553 0.774235 4.60847 0.730231 4.7302C0.633879 4.99663 0.585031 5.2759 0.585031 5.56018V6.09332L0.362168 6.01356C0.29038 5.98787 0.210592 5.99869 0.148243 6.04263C0.0859251 6.08654 0.0488281 6.15798 0.0488281 6.23424V16.3151C0.0488281 16.4446 0.153744 16.5495 0.283192 16.5495C0.283192 16.5495 11.1186 16.5508 11.1546 16.5495H11.1697C11.1813 16.5495 11.1926 16.5483 11.2038 16.5467C11.7267 16.5182 12.2461 16.3479 12.7017 16.0294C12.8078 15.9552 12.8337 15.8091 12.7595 15.703C12.6854 15.5969 12.5392 15.5711 12.4332 15.6452C11.5166 16.2859 10.2929 16.2127 9.45758 15.4882C9.949 14.9255 10.2175 14.2126 10.2175 13.4584C10.2175 12.8084 10.018 12.1891 9.64838 11.6701C10.2037 11.2722 10.8834 11.118 11.3966 11.2865C11.8197 11.4253 12.1074 11.7745 12.2289 12.2965C12.2491 12.3835 12.317 12.4514 12.404 12.4717C12.9033 12.5878 13.2461 12.8574 13.3955 13.2513C13.5886 13.7606 13.4481 14.4636 13.0376 15.042C12.9626 15.1476 12.9875 15.2939 13.093 15.3688C13.1342 15.398 13.1816 15.4121 13.2284 15.4121C13.3018 15.4121 13.3741 15.3777 13.4198 15.3133C13.9258 14.6002 14.0845 13.7463 13.8337 13.085ZM2.10832 1.01878H4.77468C4.97935 1.01878 5.1459 1.18529 5.1459 1.39C5.1459 1.5947 4.97938 1.76122 4.77468 1.76122H2.10832C1.90365 1.76122 1.7371 1.5947 1.7371 1.39C1.7371 1.18529 1.90365 1.01878 2.10832 1.01878ZM5.68 5.54515C5.98178 4.49921 6.51242 3.59066 7.17417 2.98689C7.80494 2.4114 8.47465 2.18744 9.06033 2.35643C9.60075 2.51235 10.0305 2.99908 10.2704 3.72705C10.5095 4.45239 10.5411 5.35238 10.3627 6.27406L9.35495 6.63465L7.61933 6.01356C7.56823 5.99528 7.51248 5.99528 7.46138 6.01356L5.72604 6.63465L5.47364 6.54433C5.5153 6.21211 5.58428 5.87686 5.68 5.54515ZM8.76465 16.0807C8.88938 16.0024 9.00901 15.9148 9.12277 15.8182C9.23169 15.9152 9.34629 16.0028 9.46558 16.0807H8.76465ZM8.98054 15.3126C8.48525 15.8079 7.82675 16.0807 7.12629 16.0807C6.42585 16.0807 5.76733 15.8079 5.27203 15.3126C4.65576 14.6964 4.3592 13.7976 4.55084 13.127C4.69048 12.6384 5.07526 12.3077 5.66357 12.1708C5.75054 12.1505 5.81845 12.0826 5.83871 11.9957C5.97562 11.4073 6.30628 11.0225 6.79491 10.8829C6.93133 10.8439 7.07719 10.8251 7.22817 10.8251C7.81947 10.8251 8.48962 11.1132 8.98051 11.6041C9.47583 12.0994 9.74861 12.7579 9.74861 13.4583C9.74864 14.1588 9.47587 14.8173 8.98054 15.3126ZM9.31201 11.2727C8.56929 10.53 7.50601 10.1922 6.66615 10.4323C6.13176 10.585 5.72929 10.9596 5.50474 11.5038C5.32966 11.2772 5.12333 10.8911 5.12333 10.3285C5.12333 10.199 5.01842 10.0941 4.88897 10.0941C4.75952 10.0941 4.6546 10.199 4.6546 10.3285C4.6546 11.0555 4.93775 11.5512 5.17165 11.8368C4.62751 12.0614 4.25288 12.4638 4.10018 12.9982C3.86016 13.8381 4.19791 14.9014 4.9406 15.6441C5.1083 15.8118 5.29194 15.9577 5.48799 16.0807H0.517525V6.56702L2.0185 7.10422C2.06957 7.12251 2.12538 7.12251 2.17645 7.10422L3.91179 6.48314L5.64713 7.10422C5.69819 7.12251 5.75401 7.12251 5.80508 7.10422L7.54042 6.48314L9.27604 7.10422C9.3271 7.12247 9.38289 7.12251 9.43399 7.10422L10.9353 6.56699V10.7498C10.4058 10.7524 9.83696 10.949 9.3476 11.3091C9.33579 11.2969 9.32404 11.2847 9.31201 11.2727Z" fill="#BEAD8E"/>
</svg>
