<svg width="66" height="51" viewBox="0 0 66 51" fill="none" xmlns="http://www.w3.org/2000/svg">
<path d="M8.73472 30.32C8.55425 30.1407 8.30546 30.0376 8.05151 30.0376C7.79628 30.0376 7.54749 30.1407 7.36702 30.32C7.18784 30.5005 7.08472 30.7493 7.08472 31.0044C7.08472 31.2583 7.18784 31.5084 7.36702 31.6876C7.54749 31.8681 7.79628 31.9712 8.05151 31.9712C8.30546 31.9712 8.55425 31.8681 8.73472 31.6876C8.91519 31.5084 9.01831 31.2583 9.01831 31.0044C9.01831 30.7492 8.91519 30.5004 8.73472 30.32Z" fill="#BEAD8E"/>
<path d="M64.3887 27.5734H61.7728V25.7194C61.7728 24.8309 61.05 24.1081 60.1614 24.1081H59.4625V19.1979H63.2337C63.7082 19.1979 64.1363 18.9918 64.4084 18.6324C64.6804 18.273 64.7626 17.805 64.6337 17.3484L62.5044 9.80133C62.2915 9.04619 61.5391 8.47668 60.7544 8.47668H56.2369C55.4522 8.47668 54.7 9.04606 54.4869 9.80133L52.3577 17.3485C52.2289 17.8051 52.3111 18.2732 52.583 18.6326C52.855 18.992 53.2833 19.1981 53.7578 19.1981H57.5288V24.1082H56.83C55.9414 24.1082 55.2187 24.831 55.2187 25.7196V27.5735H52.9776V25.0267C52.9776 24.1381 52.2549 23.4154 51.3663 23.4154H25.2656C24.7317 23.4154 24.2988 23.8482 24.2988 24.3822C24.2988 24.9161 24.7317 25.349 25.2656 25.349H51.0442V32.5016H49.69V31.0898C49.69 29.4905 48.389 28.1894 46.7896 28.1894H36.7646C35.1652 28.1894 33.8642 29.4905 33.8642 31.0898V32.5016H32.5374V31.0898C32.5374 29.4905 31.2363 28.1894 29.637 28.1894H19.6119C18.0126 28.1894 16.7115 29.4905 16.7115 31.0898V32.5016H14.9558V25.349H20.8827C21.4166 25.349 21.8495 24.9161 21.8495 24.3822C21.8495 23.8482 21.4166 23.4154 20.8827 23.4154H14.6336C13.745 23.4154 13.0222 24.1381 13.0222 25.0267V27.5735H10.7812V25.7197C10.7812 24.8312 10.0584 24.1084 9.16988 24.1084H8.47107V19.1979H12.2421C12.7166 19.1979 13.1447 18.9918 13.4168 18.6324C13.6888 18.273 13.7711 17.805 13.6421 17.3484L11.513 9.80133C11.3001 9.04619 10.5476 8.47668 9.76297 8.47668H5.24545C4.4608 8.47668 3.7085 9.04606 3.49542 9.80133L1.36641 17.3484C1.23763 17.805 1.31974 18.273 1.59173 18.6324C1.86373 18.9918 2.29195 19.1979 2.76646 19.1979H6.53748V24.1082H5.83881C4.95026 24.1082 4.22748 24.831 4.22748 25.7196V27.5734H1.61133C0.722777 27.5734 0 28.2962 0 29.1847V33.6223V40.832C0 41.7206 0.722777 42.4434 1.61133 42.4434H8.16234V48.6864C8.16234 49.575 8.88512 50.2977 9.77367 50.2977H14.2022C15.0908 50.2977 15.8136 49.575 15.8136 48.6864V45.5749H39.832C40.366 45.5749 40.7988 45.142 40.7988 44.6081C40.7988 44.0741 40.366 43.6413 39.832 43.6413H15.4913C14.6028 43.6413 13.88 44.3641 13.88 45.2526V48.3641H10.0959V39.8254H55.9042V48.3641H52.1201V45.2526C52.1201 44.3641 51.3974 43.6413 50.5088 43.6413H44.4727C43.9387 43.6413 43.5059 44.0741 43.5059 44.6081C43.5059 45.142 43.9387 45.5749 44.4727 45.5749H50.1866V48.6864C50.1866 49.575 50.9093 50.2977 51.7979 50.2977H56.2265C57.1149 50.2977 57.8378 49.575 57.8378 48.6864V42.4434H64.3887C65.2772 42.4434 66 41.7206 66 40.832V29.1847C66 28.2963 65.2772 27.5734 64.3887 27.5734ZM54.3906 17.2644L56.3242 10.4102H60.6671L62.6009 17.2644H54.3906ZM57.1524 26.0418H59.8392V27.4964H57.1524V26.0418ZM35.7979 31.0898C35.7979 30.5567 36.2317 30.123 36.7647 30.123H46.7897C47.3229 30.123 47.7565 30.5567 47.7565 31.0898V32.5016H35.7979V31.0898ZM19.6119 30.123H29.637C30.17 30.123 30.6038 30.5567 30.6038 31.0898V32.5016H18.6451V31.0898C18.6451 30.5567 19.0789 30.123 19.6119 30.123ZM3.39913 17.2644L5.33272 10.4103H9.67557L11.6093 17.2644H3.39913ZM6.16094 26.0418H8.84761V27.4964H6.16094V26.0418ZM9.30574 35.4018V37.9615C8.64484 38.1625 8.16222 38.7773 8.16222 39.503V40.5098H1.93359V34.5891H9.42253C9.34699 34.8472 9.30574 35.1197 9.30574 35.4018ZM1.93359 32.6555V29.507H13.0222V32.5015H12.2061C11.8806 32.5015 11.5679 32.5561 11.2756 32.6555H1.93359ZM54.7607 37.8918H11.2393V35.402C11.2393 34.8689 11.6731 34.4352 12.2061 34.4352H53.7939C54.3269 34.4352 54.7607 34.8689 54.7607 35.402V37.8918ZM64.0664 40.5098H57.8378V39.503C57.8378 38.7773 57.3553 38.1625 56.6943 37.9615V35.4018C56.6943 35.1197 56.653 34.8472 56.5775 34.5891H64.0664V40.5098ZM64.0664 32.6555H54.7244C54.4321 32.5561 54.1194 32.5015 53.7939 32.5015H52.9779V29.507H64.0664V32.6555Z" fill="#BEAD8E"/>
<path d="M58.633 30.3212C58.4525 30.1407 58.2037 30.0376 57.9485 30.0376C57.6945 30.0376 57.4457 30.1407 57.2653 30.3212C57.0848 30.5004 56.9817 30.7492 56.9817 31.0044C56.9817 31.2583 57.0848 31.5071 57.2653 31.6876C57.4445 31.8681 57.6945 31.9712 57.9485 31.9712C58.2037 31.9712 58.4525 31.8681 58.633 31.6876C58.8122 31.5071 58.9153 31.2583 58.9153 31.0044C58.9153 30.7504 58.8122 30.5004 58.633 30.3212Z" fill="#BEAD8E"/>
<path d="M47.3225 5.33402C47.8565 5.33402 48.2893 4.90115 48.2893 4.36722V1.81372C48.2893 0.92517 47.5665 0.202393 46.678 0.202393H19.322C18.4335 0.202393 17.7107 0.92517 17.7107 1.81372V16.1491C17.7107 17.0377 18.4335 17.7604 19.322 17.7604H46.678C47.5665 17.7604 48.2893 17.0377 48.2893 16.1491V8.75003C48.2893 8.2161 47.8565 7.78324 47.3225 7.78324C46.7886 7.78324 46.3557 8.2161 46.3557 8.75003V11.4862L41.7851 3.56981C41.6124 3.27075 41.2932 3.08641 40.9479 3.08641C40.6024 3.08641 40.2833 3.27075 40.1106 3.56981L35.9967 10.6955L33.1275 5.72589C33.1261 5.72344 33.1243 5.72138 33.1229 5.71893C33.041 5.57959 32.9236 5.45854 32.7736 5.37205C32.3111 5.10495 31.72 5.26351 31.453 5.72589L25.6212 15.827H19.6443V2.13599H46.3557V4.36722C46.3557 4.90115 46.7886 5.33402 47.3225 5.33402ZM40.9479 5.9868L46.3557 15.3534V15.827H35.2668L40.9479 5.9868ZM32.2902 8.14288L34.8804 12.6291L33.034 15.827H27.8538L32.2902 8.14288Z" fill="#BEAD8E"/>
<path d="M24.8377 3.24048C23.0308 3.24035 21.5608 4.7104 21.5608 6.5174C21.5608 8.32428 23.0308 9.7942 24.8377 9.7942C26.6446 9.7942 28.1145 8.32428 28.1145 6.5174C28.1145 4.7104 26.6446 3.24048 24.8377 3.24048ZM24.8377 7.86061C24.097 7.86061 23.4944 7.25797 23.4944 6.5174C23.4944 5.77658 24.097 5.17407 24.8377 5.17407C25.5783 5.17394 26.1809 5.77658 26.1809 6.5174C26.1809 7.2581 25.5783 7.86061 24.8377 7.86061Z" fill="#BEAD8E"/>
</svg>
