<svg width="16" height="15" viewBox="0 0 16 15" fill="none" xmlns="http://www.w3.org/2000/svg">
<path d="M15.6875 12.4461H15.0676V6.08294C15.4328 5.80138 15.6686 5.35963 15.6686 4.86384V3.18884C15.6686 3.18591 15.6669 3.11581 15.6438 3.06566L14.6519 0.584684C14.6044 0.465996 14.4895 0.388184 14.3617 0.388184H1.63828C1.51047 0.388184 1.39556 0.465996 1.34809 0.584684L0.35625 3.06566C0.333094 3.1105 0.331437 3.18591 0.331437 3.18884V4.86384C0.331437 5.35963 0.567187 5.80138 0.932437 6.08294V12.446H0.3125C0.139906 12.446 0 12.5859 0 12.7585V14.3993C0 14.5719 0.139906 14.7118 0.3125 14.7118H6.58731C6.75991 14.7118 6.89981 14.5719 6.89981 14.3993C6.89981 14.2267 6.75991 14.0868 6.58731 14.0868H0.625V13.071H15.375V14.0868H9.41272C9.24012 14.0868 9.10022 14.2267 9.10022 14.3993C9.10022 14.5719 9.24012 14.7118 9.41272 14.7118H15.6875C15.8601 14.7118 16 14.5719 16 14.3993V12.7585C16 12.586 15.8601 12.4461 15.6875 12.4461ZM12.5915 4.86384C12.5915 5.36756 12.1817 5.77735 11.678 5.77735C11.1743 5.77735 10.7645 5.36753 10.7645 4.86384V3.50041H12.5915V4.86384ZM10.1395 4.86384C10.1395 5.36756 9.72972 5.77735 9.22603 5.77735C8.72234 5.77735 8.3125 5.36756 8.3125 4.86384V3.50041H10.1395V4.86384ZM7.6875 4.86384C7.6875 5.36756 7.27769 5.77735 6.774 5.77735C6.27031 5.77735 5.8605 5.36753 5.8605 4.86384V3.50041H7.6875V4.86384ZM5.2355 4.86384C5.2355 5.36756 4.82569 5.77735 4.322 5.77735C3.81831 5.77735 3.4085 5.36753 3.4085 4.86384V3.50041H5.23553V4.86384H5.2355ZM0.956438 4.86384V3.50041H2.78344V4.86384C2.78344 5.36756 2.37363 5.77735 1.86994 5.77735C1.36625 5.77735 0.956438 5.36756 0.956438 4.86384ZM5.52253 1.01318L5.27437 2.87541H3.50266L3.99897 1.01318H5.52253ZM8.3125 1.01318H9.84694L10.0951 2.87541H8.3125V1.01318ZM12.001 1.01318L12.4973 2.87541H10.7257L10.4775 1.01318H12.001ZM13.2165 3.50041H15.0435V4.86384C15.0435 5.36756 14.6337 5.77735 14.13 5.77735C13.6263 5.77735 13.2165 5.36753 13.2165 4.86384V3.50041ZM14.8946 2.87541H13.1441L12.6478 1.01318H14.1501L14.8946 2.87541ZM7.6875 2.87541H5.90491L6.15306 1.01318H7.6875V2.87541ZM1.84991 1.01318H3.35216L2.85584 2.87541H1.10544L1.84991 1.01318ZM3.05628 12.4461V7.89816H6.28944V12.446H3.05628V12.4461ZM6.91444 12.4461V7.58566C6.91444 7.41307 6.77453 7.27316 6.60194 7.27316H2.74378C2.57119 7.27316 2.43128 7.41307 2.43128 7.58566V12.446H1.55744V6.37044C1.65838 6.39135 1.76291 6.40235 1.86994 6.40235C2.36981 6.40235 2.81472 6.16269 3.09594 5.79228C3.37713 6.16269 3.82206 6.40235 4.32194 6.40235C4.82181 6.40235 5.26675 6.16269 5.54794 5.79228C5.82912 6.16269 6.27406 6.40235 6.77394 6.40235C7.27381 6.40235 7.71875 6.16269 7.99994 5.79228C8.28113 6.16269 8.72606 6.40235 9.22594 6.40235C9.72581 6.40235 10.1708 6.16269 10.4519 5.79228C10.7331 6.16269 11.1781 6.40235 11.6779 6.40235C12.1778 6.40235 12.6228 6.16269 12.9039 5.79228C13.1851 6.16269 13.6301 6.40235 14.1299 6.40235C14.237 6.40235 14.3415 6.39135 14.4424 6.37044V12.446H6.91444V12.4461Z" fill="#BEAD8E"/>
<path d="M13.2565 7.27319H8.39746C8.22487 7.27319 8.08496 7.4131 8.08496 7.58569V10.9846C8.08496 11.1572 8.22487 11.2971 8.39746 11.2971H13.2565C13.4291 11.2971 13.569 11.1572 13.569 10.9846V7.58569C13.569 7.4131 13.4291 7.27319 13.2565 7.27319ZM12.944 10.6721H10.7988L11.3256 10.1453C11.4476 10.0233 11.4476 9.82544 11.3256 9.70338C11.2036 9.58135 11.0057 9.58135 10.8836 9.70338L9.9149 10.6721H8.70993V7.89819H12.944V10.6721H12.944Z" fill="#BEAD8E"/>
<path d="M9.45703 10.0789C9.37706 10.0789 9.29706 10.0484 9.23606 9.98738C9.11402 9.86535 9.11402 9.66747 9.23606 9.54541L10.4806 8.30087C10.6026 8.17884 10.8005 8.17884 10.9226 8.30087C11.0446 8.42291 11.0446 8.62078 10.9226 8.74284L9.67803 9.98738C9.61696 10.0484 9.537 10.0789 9.45703 10.0789Z" fill="#BEAD8E"/>
<path d="M8.00526 14.7119C7.8728 14.7119 7.75221 14.6248 7.70964 14.4997C7.66821 14.378 7.70771 14.2396 7.80702 14.1579C7.90898 14.074 8.05805 14.064 8.17017 14.1339C8.27929 14.202 8.3372 14.334 8.31182 14.4603C8.28286 14.6045 8.15258 14.7119 8.00526 14.7119Z" fill="#BEAD8E"/>
</svg>
