<svg width="16" height="13" viewBox="0 0 16 13" fill="none" xmlns="http://www.w3.org/2000/svg">
<path d="M16 7.42918C16 6.89993 15.7104 6.42309 15.2442 6.18471C14.7688 5.94159 14.1532 5.81831 13.4146 5.81831H5.38572C5.32791 5.52981 5.19981 5.26768 5.00766 5.05409L3.86906 3.78837C3.58731 3.47515 3.18244 3.28496 2.72906 3.2529L2.52453 3.23843C2.41981 3.2309 2.31341 3.24568 2.21128 3.27993V2.61084C2.21128 2.37646 2.11256 2.16481 1.95475 2.01484C2.11478 1.82303 2.21128 1.5764 2.21128 1.30765C2.21128 0.697995 1.71528 0.202026 1.10566 0.202026C0.496031 0.202026 0 0.698026 0 1.30768C0 1.57646 0.0965 1.82306 0.256531 2.01487C0.0987187 2.16487 0 2.3765 0 2.61087V12.5856C0 12.7582 0.139906 12.8981 0.3125 12.8981H1.39109C1.55228 12.8981 1.68703 12.7755 1.70222 12.615C1.73944 12.2215 1.94753 11.1407 2.46309 10.6561H3.29988C3.47247 10.6561 3.61238 10.5161 3.61238 10.3436C3.61238 10.171 3.47247 10.0311 3.29988 10.0311L0.624969 10.031V7.2799L4.79609 7.27981V8.09415C4.79609 8.57596 5.18806 8.96796 5.66991 8.96796H5.66997H15.1262C15.2101 8.96796 15.2946 8.95578 15.375 8.9319V10.0311H13.6529C13.6527 10.0311 13.6524 10.0311 13.6521 10.0311H6.04956C5.87697 10.0311 5.73706 10.171 5.73706 10.3436C5.73706 10.5162 5.87697 10.6561 6.04956 10.6561H13.5369C14.0504 11.1394 14.2599 12.2212 14.2978 12.615C14.313 12.7755 14.4477 12.8981 14.6089 12.8981H15.6875C15.8601 12.8981 16 12.7582 16 12.5856V7.42918ZM2.21203 4.30171C2.21669 4.16856 2.19844 4.03096 2.30816 3.93306C2.41853 3.83456 2.55094 3.86684 2.68494 3.87634C2.98019 3.89725 3.22897 4.01134 3.40438 4.20637L4.54297 5.47212C4.72753 5.67725 4.81606 5.96318 4.79222 6.27715C4.78306 6.39803 4.78525 6.50518 4.68337 6.59046C4.59028 6.6684 4.48925 6.65387 4.37719 6.65053C4.06244 6.64109 3.78747 6.5229 3.60291 6.31775L2.46431 5.05203C2.28016 4.84725 2.20253 4.57359 2.21203 4.30171ZM0.625 6.65487V2.61087C0.625 2.50193 0.713625 2.41331 0.822563 2.41331H1.38866C1.49759 2.41331 1.58622 2.50193 1.58622 2.61087V6.65484H0.625V6.65487ZM2.21125 5.70515L3.06556 6.65487H2.21125V5.70515ZM1.10563 0.827058C1.37063 0.827058 1.58625 1.04265 1.58625 1.30768C1.58625 1.57271 1.37066 1.78831 1.10563 1.78831C0.840594 1.78831 0.625 1.57271 0.625 1.30768C0.625 1.04265 0.840594 0.827058 1.10563 0.827058ZM1.11881 12.2731H0.625V10.6561H1.67288C1.33469 11.2097 1.18175 11.8946 1.11881 12.2731ZM5.66994 8.34299C5.53278 8.34299 5.42119 8.2314 5.42119 8.09424L5.42106 6.44331H13.4146C14.0533 6.44331 14.5732 6.54353 14.9596 6.74115C15.2158 6.87215 15.375 7.13578 15.375 7.42918V8.09306C15.375 8.09346 15.3749 8.09387 15.3749 8.09428C15.3749 8.23143 15.2633 8.34303 15.1262 8.34303H5.66994V8.34299ZM14.8812 12.2731C14.8182 11.8946 14.6653 11.2097 14.3272 10.6561H15.375V12.2731H14.8812Z" fill="#BEAD8E"/>
<path d="M4.96371 10.2241C4.89905 10.0665 4.71246 9.99029 4.55558 10.0551C4.39814 10.1201 4.32136 10.3059 4.38652 10.4632C4.45164 10.6205 4.63736 10.6974 4.79465 10.6323C4.95162 10.5673 5.02906 10.3811 4.96371 10.2241Z" fill="#BEAD8E"/>
</svg>
