<svg width="14" height="17" viewBox="0 0 14 17" fill="none" xmlns="http://www.w3.org/2000/svg">
<path d="M12.1562 7.25567V5.7063C12.1562 2.86314 9.84316 0.550049 7 0.550049C4.15684 0.550049 1.84375 2.86314 1.84375 5.7063V7.25567C1.29816 7.44917 0.90625 7.97021 0.90625 8.5813V10.4563C0.90625 13.8164 3.63991 16.55 7 16.55C10.3601 16.55 13.0938 13.8164 13.0938 10.4563V8.5813C13.0938 7.97021 12.7018 7.44917 12.1562 7.25567ZM7 1.48755C9.32622 1.48755 11.2188 3.38008 11.2188 5.7063V7.17505H10.2812V5.7063C10.2812 3.89702 8.80928 2.42505 7 2.42505C5.19072 2.42505 3.71875 3.89702 3.71875 5.7063V7.17505H2.78125V5.7063C2.78125 3.38008 4.67378 1.48755 7 1.48755ZM4.65625 7.17505V5.7063C4.65625 4.41396 5.70766 3.36255 7 3.36255C8.29234 3.36255 9.34375 4.41396 9.34375 5.7063V7.17505H4.65625ZM12.1562 10.4563C12.1562 13.2995 9.84316 15.6125 7 15.6125C4.15684 15.6125 1.84375 13.2995 1.84375 10.4563V8.5813C1.84375 8.32283 2.05403 8.11255 2.3125 8.11255H11.6875C11.946 8.11255 12.1562 8.32283 12.1562 8.5813V10.4563Z" fill="#BEAD8E"/>
<path d="M7 9.05005C6.22459 9.05005 5.59375 9.68089 5.59375 10.4563C5.59375 11.0674 5.98566 11.5884 6.53125 11.7819V14.2063C6.53125 14.4652 6.74112 14.675 7 14.675C7.25888 14.675 7.46875 14.4652 7.46875 14.2063V11.7819C8.01434 11.5884 8.40625 11.0674 8.40625 10.4563C8.40625 9.68089 7.77541 9.05005 7 9.05005ZM7 10.925C6.74153 10.925 6.53125 10.7148 6.53125 10.4563C6.53125 10.1978 6.74153 9.98755 7 9.98755C7.25847 9.98755 7.46875 10.1978 7.46875 10.4563C7.46875 10.7148 7.25847 10.925 7 10.925Z" fill="#BEAD8E"/>
</svg>
