<svg width="16" height="15" viewBox="0 0 16 15" fill="none" xmlns="http://www.w3.org/2000/svg">
<path d="M15.4521 1.72008H13.4245C13.2836 1.20755 12.8092 0.831421 12.2618 0.831421H4.21359C3.6585 0.831421 3.19009 1.20861 3.05053 1.72008H0.547938C0.245813 1.72008 0 1.96589 0 2.26804V2.7827C0 3.08482 0.245813 3.33064 0.547938 3.33064H3.00791V7.74132C3.00791 7.87101 3.11303 7.97616 3.24275 7.97616C3.37247 7.97616 3.47759 7.87101 3.47759 7.74132V2.03711C3.47759 1.6313 3.80775 1.30111 4.21359 1.30111H11.3075C11.15 1.50486 11.0562 1.76026 11.0562 2.03711V10.5397H3.47759V8.68066C3.47759 8.55097 3.37244 8.44582 3.24275 8.44582C3.11306 8.44582 3.00791 8.55097 3.00791 8.68066V13.5642C3.00791 13.9527 3.32394 14.2687 3.71241 14.2687H10.8213C11.2098 14.2687 11.5258 13.9527 11.5258 13.5642V10.1438H12.763C13.1514 10.1438 13.4675 9.82775 13.4675 9.43929V5.32804C13.4675 5.19835 13.3623 5.0932 13.2326 5.0932C13.1029 5.0932 12.9978 5.19832 12.9978 5.32804V9.43929C12.9978 9.56879 12.8924 9.67413 12.7629 9.67413H11.5258V3.33064H12.9978V4.3887C12.9978 4.51839 13.1029 4.62354 13.2326 4.62354C13.3623 4.62354 13.4675 4.51842 13.4675 4.3887V3.33064H15.452C15.7542 3.33064 16 3.08482 16 2.7827V2.26804C16 1.96589 15.7542 1.72008 15.4521 1.72008ZM0.547938 2.86098C0.504781 2.86098 0.469656 2.82586 0.469656 2.7827V2.26804C0.469656 2.22489 0.504781 2.18976 0.547938 2.18976H3.00791V2.86098H0.547938ZM12.2618 1.30111C12.5502 1.30111 12.8051 1.47223 12.9248 1.72011H11.5977C11.7163 1.47251 11.9694 1.30111 12.2618 1.30111ZM10.8213 13.7991H3.71244C3.58297 13.7991 3.47759 13.6937 3.47759 13.5642V12.555H8.34966C8.47934 12.555 8.5845 12.4498 8.5845 12.3201C8.5845 12.1904 8.47934 12.0853 8.34966 12.0853H3.47759V11.0093H11.0562V12.0853H9.289C9.15931 12.0853 9.05416 12.1904 9.05416 12.3201C9.05416 12.4498 9.15931 12.555 9.289 12.555H11.0562V13.5642C11.0561 13.6937 10.9508 13.7991 10.8213 13.7991ZM15.5303 2.7827C15.5303 2.82586 15.4952 2.86098 15.4521 2.86098H11.5258V2.18976H15.4521C15.4952 2.18976 15.5303 2.22489 15.5303 2.26804V2.7827Z" fill="#BEAD8E"/>
</svg>
